<svg width="1036" height="324" viewBox="0 0 1036 324" fill="none" xmlns="http://www.w3.org/2000/svg">
<rect width="1036" height="324" rx="66" fill="#1E2C38"/>
<path d="M93.9826 98.7273H117.287L157.805 197.662H159.297L199.815 98.7273H223.12V226H204.849V133.901H203.668L166.133 225.814H150.969L113.434 133.839H112.253V226H93.9826V98.7273ZM277.326 228.113C271.277 228.113 265.808 226.994 260.919 224.757C256.031 222.478 252.157 219.185 249.298 214.876C246.481 210.567 245.072 205.285 245.072 199.029C245.072 193.643 246.108 189.21 248.18 185.73C250.251 182.25 253.048 179.495 256.569 177.465C260.091 175.435 264.027 173.902 268.377 172.866C272.727 171.83 277.16 171.043 281.676 170.505C287.393 169.842 292.033 169.303 295.596 168.889C299.159 168.433 301.748 167.708 303.364 166.714C304.98 165.719 305.788 164.104 305.788 161.866V161.431C305.788 156.004 304.255 151.799 301.189 148.816C298.165 145.833 293.649 144.342 287.642 144.342C281.386 144.342 276.456 145.73 272.851 148.505C269.288 151.24 266.823 154.285 265.456 157.641L247.993 153.663C250.065 147.863 253.089 143.182 257.066 139.619C261.085 136.014 265.704 133.404 270.925 131.788C276.145 130.131 281.634 129.303 287.393 129.303C291.205 129.303 295.244 129.758 299.511 130.67C303.82 131.54 307.839 133.156 311.567 135.517C315.338 137.879 318.424 141.255 320.827 145.647C323.23 149.997 324.431 155.652 324.431 162.612V226H306.285V212.95H305.539C304.338 215.353 302.536 217.714 300.133 220.034C297.73 222.354 294.643 224.281 290.873 225.814C287.103 227.346 282.587 228.113 277.326 228.113ZM281.365 213.198C286.502 213.198 290.894 212.183 294.54 210.153C298.227 208.123 301.023 205.471 302.929 202.199C304.876 198.884 305.85 195.342 305.85 191.572V179.267C305.187 179.93 303.903 180.551 301.997 181.131C300.133 181.67 297.999 182.146 295.596 182.561C293.193 182.934 290.852 183.286 288.574 183.617C286.295 183.907 284.389 184.156 282.856 184.363C279.252 184.819 275.958 185.585 272.975 186.662C270.034 187.739 267.672 189.293 265.891 191.323C264.151 193.312 263.281 195.963 263.281 199.278C263.281 203.876 264.979 207.357 268.377 209.718C271.774 212.038 276.103 213.198 281.365 213.198ZM384.914 227.864C377.208 227.864 370.331 225.896 364.282 221.961C358.274 217.983 353.551 212.328 350.113 204.995C346.715 197.621 345.017 188.775 345.017 178.459C345.017 168.143 346.736 159.319 350.175 151.985C353.655 144.652 358.419 139.039 364.468 135.144C370.517 131.25 377.374 129.303 385.038 129.303C390.963 129.303 395.727 130.297 399.332 132.286C402.977 134.233 405.795 136.511 407.783 139.121C409.813 141.732 411.388 144.031 412.506 146.02H413.625V98.7273H432.206V226H414.06V211.147H412.506C411.388 213.177 409.772 215.498 407.659 218.108C405.587 220.718 402.729 222.996 399.083 224.944C395.437 226.891 390.714 227.864 384.914 227.864ZM389.015 212.017C394.36 212.017 398.876 210.609 402.563 207.792C406.292 204.933 409.109 200.976 411.015 195.922C412.962 190.867 413.936 184.984 413.936 178.273C413.936 171.644 412.983 165.844 411.077 160.872C409.171 155.901 406.375 152.027 402.687 149.251C399 146.475 394.443 145.087 389.015 145.087C383.422 145.087 378.762 146.537 375.033 149.438C371.304 152.338 368.487 156.294 366.581 161.307C364.717 166.32 363.785 171.975 363.785 178.273C363.785 184.653 364.738 190.391 366.643 195.487C368.549 200.583 371.366 204.622 375.095 207.605C378.865 210.547 383.505 212.017 389.015 212.017ZM499.866 227.926C490.462 227.926 482.362 225.917 475.568 221.898C468.815 217.838 463.594 212.142 459.907 204.809C456.261 197.434 454.438 188.796 454.438 178.894C454.438 169.117 456.261 160.499 459.907 153.042C463.594 145.585 468.732 139.764 475.319 135.579C481.948 131.395 489.695 129.303 498.561 129.303C503.947 129.303 509.167 130.193 514.222 131.975C519.276 133.756 523.813 136.553 527.832 140.364C531.85 144.176 535.02 149.127 537.34 155.217C539.66 161.266 540.82 168.62 540.82 177.278V183.866H464.941V169.945H522.611C522.611 165.057 521.617 160.727 519.628 156.957C517.64 153.145 514.843 150.142 511.239 147.946C507.676 145.75 503.492 144.652 498.686 144.652C493.465 144.652 488.908 145.937 485.014 148.505C481.161 151.033 478.178 154.347 476.065 158.449C473.993 162.509 472.958 166.921 472.958 171.685V182.561C472.958 188.941 474.076 194.368 476.313 198.843C478.592 203.317 481.762 206.735 485.822 209.097C489.882 211.417 494.626 212.577 500.053 212.577C503.574 212.577 506.785 212.08 509.685 211.085C512.585 210.049 515.092 208.517 517.205 206.487C519.318 204.456 520.934 201.95 522.052 198.967L539.639 202.136C538.23 207.315 535.703 211.852 532.057 215.746C528.453 219.599 523.916 222.603 518.448 224.757C513.02 226.87 506.827 227.926 499.866 227.926ZM628.444 226L600.355 130.545H619.557L638.263 200.645H639.195L657.963 130.545H677.166L695.809 200.334H696.741L715.323 130.545H734.525L706.498 226H687.544L668.155 157.081H666.725L647.336 226H628.444ZM752.159 226V130.545H770.74V226H752.159ZM761.543 115.817C758.311 115.817 755.536 114.74 753.216 112.586C750.937 110.39 749.798 107.78 749.798 104.755C749.798 101.69 750.937 99.0794 753.216 96.9251C755.536 94.7293 758.311 93.6314 761.543 93.6314C764.775 93.6314 767.53 94.7293 769.808 96.9251C772.128 99.0794 773.288 101.69 773.288 104.755C773.288 107.78 772.128 110.39 769.808 112.586C767.53 114.74 764.775 115.817 761.543 115.817ZM840.296 130.545V145.46H788.157V130.545H840.296ZM802.139 107.676H820.72V197.973C820.72 201.577 821.259 204.291 822.336 206.114C823.413 207.895 824.801 209.117 826.5 209.78C828.24 210.402 830.125 210.712 832.155 210.712C833.647 210.712 834.952 210.609 836.07 210.402C837.189 210.194 838.059 210.029 838.68 209.904L842.036 225.254C840.959 225.669 839.426 226.083 837.437 226.497C835.449 226.953 832.963 227.201 829.98 227.243C825.091 227.326 820.534 226.456 816.308 224.633C812.082 222.81 808.664 219.993 806.054 216.181C803.444 212.37 802.139 207.584 802.139 201.826V107.676ZM881.483 169.324V226H862.901V98.7273H881.234V146.082H882.415C884.652 140.944 888.07 136.864 892.669 133.839C897.267 130.815 903.275 129.303 910.691 129.303C917.237 129.303 922.954 130.649 927.843 133.342C932.773 136.035 936.584 140.054 939.277 145.398C942.012 150.701 943.379 157.33 943.379 165.284V226H924.798V167.522C924.798 160.52 922.995 155.093 919.391 151.24C915.787 147.345 910.774 145.398 904.352 145.398C899.96 145.398 896.025 146.33 892.544 148.195C889.106 150.059 886.392 152.793 884.403 156.398C882.456 159.961 881.483 164.269 881.483 169.324Z" fill="white"/>
</svg>
