<svg width="157" height="157" viewBox="0 0 157 157" fill="none" xmlns="http://www.w3.org/2000/svg">
<path d="M111.307 104C125.497 104 137 92.5833 137 78.5C137 64.4167 125.497 53 111.307 53L45.6934 53C31.5033 53 20 64.4167 20 78.5C20 92.5833 31.5033 104 45.6934 104H111.307Z" stroke="#33BC77" stroke-opacity="0.25" stroke-width="12"/>
<path d="M120.033 83.8079C130.074 93.8793 130.074 110.208 120.033 120.28C109.992 130.351 93.7114 130.351 83.6701 120.28L37.0688 73.5389C27.0274 63.4675 27.0274 47.1385 37.0688 37.0671C47.1101 26.9957 63.3904 26.9957 73.4318 37.0671L120.033 83.8079Z" stroke="#33BC77" stroke-opacity="0.5" stroke-width="12"/>
<path d="M37.0685 83.8079C27.0272 93.8793 27.0272 110.208 37.0685 120.28C47.1099 130.351 63.3901 130.351 73.4315 120.28L120.033 73.5389C130.074 63.4675 130.074 47.1385 120.033 37.0671C109.991 26.9957 93.7112 26.9957 83.6698 37.0671L37.0685 83.8079Z" stroke="#33BC77" stroke-opacity="0.5" stroke-width="12"/>
<path d="M78.5241 138H77.0502C63.7678 138 53 127.047 53 113.536V44.5185C53 30.9772 63.7916 20 77.1037 20H82.1063C98.747 20 106.155 41.2687 93.2267 51.926C80.7351 62.223 79.6457 81.2134 90.8752 92.9187L95.2919 97.5225C109.774 112.618 99.2595 138 78.5241 138Z" stroke="#33BC77" stroke-width="12"/>
<path d="M157 78.5C157 121.854 121.854 157 78.5 157C35.1455 157 0 121.854 0 78.5C0 35.1455 35.1455 0 78.5 0C121.854 0 157 35.1455 157 78.5ZM10.7277 78.5C10.7277 115.93 41.0705 146.272 78.5 146.272C115.93 146.272 146.272 115.93 146.272 78.5C146.272 41.0705 115.93 10.7277 78.5 10.7277C41.0705 10.7277 10.7277 41.0705 10.7277 78.5Z" fill="#33BC77" fill-opacity="0.25"/>
</svg>
