<svg width="6335" height="1344" viewBox="0 0 6335 1344" fill="none" xmlns="http://www.w3.org/2000/svg">
<path d="M4080 546.104V510.599C4080 378.272 4187.27 271 4319.6 271H4740.4H5107.65C5265.8 271 5394 399.203 5394 557.35C5394 765.897 5123.35 856.845 4992.56 686.793C4866.37 522.719 4616.02 519.542 4488.4 683.877C4354.97 855.69 4080 761.84 4080 546.104Z" stroke="url(#paint0_linear_545_13)" stroke-width="92" style="mix-blend-mode:color-dodge"/>
<path d="M130.437 799.998C99.5095 799.998 74.4375 774.926 74.4375 743.998V296.054C74.4375 265.126 99.5096 240.054 130.438 240.054H172.118C183.541 240.054 193.126 248.667 194.343 260.025V260.025C196.699 282.011 230.881 290.252 247.62 275.805C256.187 268.41 265.49 261.678 275.529 255.608C307.378 236.351 345.152 226.722 388.851 226.722C434.032 226.722 472.546 236.351 504.395 255.608C536.244 274.125 560.685 301.529 577.72 337.822C595.496 374.115 604.384 419.295 604.384 473.364V743.998C604.384 774.926 579.312 799.998 548.384 799.998H527.065C496.137 799.998 471.065 774.926 471.065 743.998V485.585C471.065 438.923 460.695 403.001 439.956 377.818C419.217 352.635 388.481 340.044 347.744 340.044C321.08 340.044 297.008 346.34 275.529 358.931C254.79 371.522 238.125 390.039 225.534 414.481C213.683 438.182 207.758 467.068 207.758 501.139V743.998C207.758 774.926 182.685 799.998 151.758 799.998H130.437ZM1117.1 813.33C1064.51 813.33 1017.85 801.109 977.117 776.667C937.121 752.225 905.643 718.154 882.682 674.455C859.721 630.015 848.24 578.539 848.24 520.026C848.24 460.773 859.35 409.296 881.57 365.597C904.531 321.898 936.38 287.827 977.117 263.385C1018.59 238.943 1066 226.722 1119.32 226.722C1174.13 226.722 1220.42 238.943 1258.2 263.385C1296.71 287.827 1325.97 320.046 1345.97 360.042C1366.71 399.297 1377.08 442.626 1377.08 490.029C1377.08 497.436 1377.08 505.213 1377.08 513.36V513.36C1377.08 529.03 1363.83 541.135 1348.16 541.135H954.341C934.399 541.135 918.233 524.969 918.233 505.028V505.028C918.233 485.086 934.399 468.92 954.341 468.92H1227.49C1259.37 468.92 1286.07 441.697 1275.73 411.539C1267.25 386.816 1253.63 365.947 1234.87 348.932C1203.76 320.046 1164.5 305.603 1117.1 305.603C1085.25 305.603 1055.63 313.01 1028.22 327.823C1001.56 341.896 980.079 363.005 963.784 391.15C947.489 418.555 939.342 452.996 939.342 494.473V525.581C939.342 571.502 947.489 610.017 963.784 641.125C980.819 672.233 1002.67 695.564 1029.33 711.118C1056.74 726.672 1085.99 734.449 1117.1 734.449C1156.36 734.449 1188.58 725.931 1213.76 708.896C1230.7 697.276 1244.49 683.125 1255.1 666.441C1265.45 650.184 1282.08 637.792 1301.35 637.792V637.792C1331.72 637.792 1353.85 666.949 1338.81 693.336C1331.95 705.378 1323.96 716.86 1314.86 727.783C1292.64 754.447 1264.86 775.556 1231.53 791.11C1198.95 805.923 1160.8 813.33 1117.1 813.33ZM1828.54 813.33C1785.58 813.33 1747.81 804.812 1715.22 787.777C1683.37 770.742 1658.56 744.448 1640.78 708.896C1623.75 673.344 1615.23 628.904 1615.23 575.576V286.714C1615.23 260.945 1636.12 240.054 1661.89 240.054V240.054C1687.66 240.054 1708.55 260.945 1708.55 286.714V565.577C1708.55 621.127 1720.77 662.975 1745.22 691.12C1769.66 719.265 1804.1 733.338 1848.54 733.338C1879.65 733.338 1907.79 725.931 1932.98 711.118C1958.16 695.564 1977.79 673.714 1991.86 645.569C2006.67 616.683 2014.08 581.501 2014.08 540.024V286.714C2014.08 260.945 2034.97 240.054 2060.74 240.054V240.054C2086.51 240.054 2107.4 260.945 2107.4 286.714V756.584C2107.4 780.561 2087.96 799.998 2063.99 799.998H2042.38C2031.49 799.998 2022.49 791.497 2021.87 780.622V780.622C2020.67 759.51 1986.01 750.326 1970.01 764.146C1961.38 771.597 1952 778.363 1941.86 784.444C1908.53 803.701 1870.76 813.33 1828.54 813.33ZM2430.97 799.998C2405.2 799.998 2384.31 779.108 2384.31 753.338V283.591C2384.31 259.546 2403.8 240.054 2427.85 240.054H2447.18C2459.3 240.054 2469.34 249.483 2470.09 261.585L2470.38 266.203C2471.77 288.351 2506.88 297.322 2523.19 282.272V282.272C2543.18 264.496 2566.88 250.794 2594.29 241.165C2608.9 236.167 2624.5 232.466 2641.11 230.062C2667.83 226.195 2689.84 248.608 2689.84 275.606V290.04C2689.84 309.066 2674.42 324.49 2655.39 324.49V324.49C2631.69 324.49 2609.1 327.823 2587.62 334.489C2566.14 340.414 2546.89 350.413 2529.85 364.486C2513.56 378.559 2500.59 397.816 2490.97 422.258C2482.08 445.959 2477.63 475.586 2477.63 511.138V753.338C2477.63 779.108 2456.74 799.998 2430.97 799.998V799.998ZM3147.08 813.33C3095.23 813.33 3048.57 801.479 3007.1 777.778C2965.62 753.336 2933.03 719.265 2909.33 675.566C2885.63 631.126 2873.78 579.65 2873.78 521.137C2873.78 461.143 2885.63 409.296 2909.33 365.597C2933.77 321.157 2966.73 287.086 3008.21 263.385C3050.42 238.943 3097.46 226.722 3149.3 226.722C3202.63 226.722 3249.66 238.943 3290.4 263.385C3331.88 287.086 3364.47 321.157 3388.17 365.597C3412.61 409.296 3424.83 460.773 3424.83 520.026C3424.83 579.279 3412.61 631.126 3388.17 675.566C3363.73 719.265 3330.77 753.336 3289.29 777.778C3247.81 801.479 3200.41 813.33 3147.08 813.33ZM3148.19 733.338C3180.04 733.338 3209.67 725.561 3237.07 710.007C3264.48 693.712 3286.7 669.641 3303.73 637.792C3320.77 605.943 3329.29 566.688 3329.29 520.026C3329.29 472.623 3320.77 433.368 3303.73 402.26C3287.44 370.411 3265.59 346.71 3238.18 331.156C3211.52 314.861 3181.89 306.714 3149.3 306.714C3118.2 306.714 3088.57 314.861 3060.42 331.156C3033.02 346.71 3010.8 370.411 2993.76 402.26C2977.47 433.368 2969.32 472.623 2969.32 520.026C2969.32 566.688 2977.47 605.943 2993.76 637.792C3010.8 669.641 3032.65 693.712 3059.31 710.007C3086.72 725.561 3116.34 733.338 3148.19 733.338ZM3724.55 799.998C3698.78 799.998 3677.89 779.108 3677.89 753.338V46.7382C3677.89 20.9686 3698.78 0.078125 3724.55 0.078125V0.078125C3750.32 0.078125 3771.21 20.9685 3771.21 46.7382V753.338C3771.21 779.108 3750.32 799.998 3724.55 799.998V799.998ZM5763.41 1044.42C5737.64 1044.42 5716.75 1023.53 5716.75 997.758V284.069C5716.75 259.76 5736.46 240.054 5760.76 240.054H5778.95C5791.52 240.054 5802 249.679 5803.07 262.207L5803.19 263.54C5805.1 285.923 5837.31 295.608 5854.51 281.161V281.161C5873.03 264.866 5895.25 251.905 5921.17 242.276C5947.09 231.907 5976.72 226.722 6010.05 226.722C6064.86 226.722 6112.26 239.684 6152.26 265.607C6192.99 291.53 6224.47 326.712 6246.69 371.152C6269.65 414.851 6281.13 464.846 6281.13 521.137C6281.13 577.428 6269.65 627.793 6246.69 672.233C6224.47 715.932 6192.99 750.373 6152.26 775.556C6111.52 800.739 6063.75 813.33 6008.94 813.33C5963.76 813.33 5923.76 804.072 5888.95 785.555V785.555C5862.56 771.213 5810.07 790.062 5810.07 820.096V997.758C5810.07 1023.53 5789.18 1044.42 5763.41 1044.42V1044.42ZM5998.94 732.227C6035.23 732.227 6067.45 723.339 6095.6 705.563C6123.74 687.787 6145.59 663.345 6161.15 632.237C6177.44 600.388 6185.59 562.985 6185.59 520.026C6185.59 477.808 6177.44 440.775 6161.15 408.926C6145.59 377.077 6123.74 352.265 6095.6 334.489C6067.45 316.713 6035.23 307.825 5998.94 307.825C5961.91 307.825 5929.32 316.713 5901.17 334.489C5873.03 352.265 5851.18 377.077 5835.62 408.926C5820.07 440.775 5812.29 477.808 5812.29 520.026C5812.29 562.985 5820.07 600.388 5835.62 632.237C5851.18 663.345 5873.03 687.787 5901.17 705.563C5929.32 723.339 5961.91 732.227 5998.94 732.227Z" fill="white"/>
<defs>
<linearGradient id="paint0_linear_545_13" x1="4141.54" y1="225" x2="5394" y2="960.5" gradientUnits="userSpaceOnUse">
<stop stop-color="#4CA1AF"/>
<stop offset="1" stop-color="white"/>
</linearGradient>
</defs>
</svg>
