<svg width="122" height="20" viewBox="0 0 122 20" fill="none" xmlns="http://www.w3.org/2000/svg">
<path d="M23.1019 15.5745C22.1039 15.5745 21.2185 15.3404 20.4456 14.8724C19.6866 14.4043 19.0892 13.7519 18.6536 12.9149C18.218 12.0639 18 11.078 18 9.9574C18 8.8227 18.2109 7.8369 18.6325 7C19.0681 6.1631 19.6726 5.5106 20.4456 5.0426C21.2326 4.5745 22.1321 4.3404 23.144 4.3404C24.1841 4.3404 25.0625 4.5745 25.7792 5.0426C26.51 5.5106 27.0652 6.1276 27.4447 6.8936C27.8382 7.6454 28.035 8.4752 28.035 9.383C28.035 9.5248 28.035 9.6738 28.035 9.8298C28.035 10.1296 27.7766 10.3617 27.4708 10.3617H20.0336C19.644 10.3617 19.3282 10.0521 19.3282 9.6702C19.3282 9.2883 19.644 8.9787 20.0336 8.9787H23.7012C25.1219 8.9787 26.3748 7.6313 25.3365 6.6809C24.7462 6.1276 24.0013 5.8511 23.1019 5.8511C22.4975 5.8511 21.9353 5.9929 21.4153 6.2766C20.9094 6.5461 20.5017 6.9504 20.1926 7.4894C19.8834 8.0142 19.7287 8.6738 19.7287 9.4681V10.0639C19.7287 10.9433 19.8834 11.6809 20.1926 12.2766C20.5159 12.8724 20.9304 13.3191 21.4364 13.617C21.9564 13.9149 22.5115 14.0639 23.1019 14.0639C23.8468 14.0639 24.4582 13.9008 24.936 13.5745C25.2596 13.3505 25.5224 13.0774 25.7243 12.7552C25.9177 12.4469 26.2357 12.2128 26.605 12.2128C27.1795 12.2128 27.6005 12.7509 27.3261 13.2457C27.1921 13.4875 27.0348 13.7177 26.8544 13.9361C26.4328 14.4468 25.9057 14.8511 25.2733 15.1489C24.6548 15.4326 23.9311 15.5745 23.1019 15.5745ZM37.0234 15.5745C36.2083 15.5745 35.4916 15.4114 34.8731 15.0851C34.2688 14.7588 33.7979 14.2553 33.4606 13.5745C33.1373 12.8936 32.9758 12.0426 32.9758 11.0213V5.4636C32.9758 4.9844 33.3722 4.5957 33.8612 4.5957C34.3502 4.5957 34.7466 4.9844 34.7466 5.4636V10.8298C34.7466 11.8936 34.9785 12.695 35.4423 13.2341C35.9061 13.7731 36.5597 14.0426 37.4029 14.0426C37.9932 14.0426 38.5274 13.9008 39.0052 13.617C39.483 13.3191 39.8555 12.9008 40.1225 12.3617C40.4037 11.8085 40.5441 11.1348 40.5441 10.3404V5.4636C40.5441 4.9844 40.9406 4.5957 41.4296 4.5957C41.9185 4.5957 42.315 4.9844 42.315 5.4637V14.5122C42.315 14.9579 41.9464 15.3191 41.4918 15.3191H41.0843C40.8759 15.3191 40.7038 15.1595 40.6923 14.9555C40.6698 14.5572 39.9959 14.3849 39.6901 14.6479C39.5313 14.7846 39.3592 14.909 39.1738 15.0213C38.5413 15.3901 37.8245 15.5745 37.0234 15.5745ZM48.8766 15.3191C48.3876 15.3191 47.9911 14.9306 47.9911 14.4512V5.4049C47.9911 4.958 48.3607 4.5957 48.8165 4.5957H49.1802C49.4123 4.5957 49.6043 4.7729 49.6184 5L49.6253 5.1121C49.6508 5.5238 50.3214 5.6884 50.6263 5.4043C51.0058 5.0639 51.4556 4.8014 51.9756 4.617C52.2449 4.5241 52.532 4.4545 52.837 4.4084C53.3583 4.3296 53.7886 4.7596 53.7886 5.2766V5.5721C53.7886 5.9259 53.496 6.2128 53.135 6.2128C52.6853 6.2128 52.2568 6.2766 51.8491 6.4043C51.4414 6.5177 51.0761 6.7092 50.7528 6.9787C50.4437 7.2482 50.1976 7.617 50.0149 8.0851C49.8463 8.539 49.762 9.1064 49.762 9.7872V14.4512C49.762 14.9306 49.3655 15.3191 48.8766 15.3191ZM62.8867 15.5745C61.903 15.5745 61.0176 15.3476 60.2304 14.8936C59.4433 14.4255 58.825 13.7731 58.3752 12.9361C57.9255 12.0851 57.7006 11.0993 57.7006 9.9787C57.7006 8.8298 57.9255 7.8369 58.3752 7C58.839 6.1489 59.4644 5.4964 60.2515 5.0426C61.0526 4.5745 61.9451 4.3404 62.9289 4.3404C63.9409 4.3404 64.8334 4.5745 65.6063 5.0426C66.3934 5.4964 67.0117 6.1489 67.4615 7C67.9253 7.8369 68.1572 8.8227 68.1572 9.9574C68.1572 11.0922 67.9253 12.0851 67.4615 12.9361C66.9977 13.7731 66.3724 14.4255 65.5852 14.8936C64.7981 15.3476 63.8987 15.5745 62.8867 15.5745ZM62.9078 14.0426C63.5121 14.0426 64.0744 13.8936 64.5944 13.5957C65.1143 13.2837 65.536 12.8226 65.8593 12.2128C66.1826 11.6029 66.3442 10.8511 66.3442 9.9574C66.3442 9.0496 66.1826 8.2979 65.8593 7.7021C65.5502 7.0922 65.1354 6.6383 64.6155 6.3404C64.1095 6.0284 63.5474 5.8724 62.9289 5.8724C62.3386 5.8724 61.7765 6.0284 61.2424 6.3404C60.7224 6.6383 60.3008 7.0922 59.9774 7.7021C59.6683 8.2979 59.5136 9.0496 59.5136 9.9574C59.5136 10.8511 59.6683 11.6029 59.9774 12.2128C60.3008 12.8226 60.7153 13.2837 61.2212 13.5957C61.7412 13.8936 62.3036 14.0426 62.9078 14.0426ZM74.2664 15.3191C73.7775 15.3191 73.381 14.9306 73.381 14.4512V0.867901C73.381 0.388601 73.7775 0 74.2664 0C74.7554 0 75.152 0.388601 75.152 0.867901V14.4512C75.152 14.9306 74.7554 15.3191 74.2664 15.3191ZM85.559 15.5745C84.575 15.5745 83.69 15.3476 82.903 14.8936C82.115 14.4255 81.497 13.7731 81.048 12.9361C80.597 12.0851 80.373 11.0993 80.373 9.9787C80.373 8.8298 80.597 7.8369 81.048 7C81.511 6.1489 82.136 5.4964 82.923 5.0426C83.725 4.5745 84.617 4.3404 85.601 4.3404C86.613 4.3404 87.505 4.5745 88.278 5.0426C89.065 5.4964 89.684 6.1489 90.134 7C90.597 7.8369 90.83 8.8227 90.83 9.9574C90.83 11.0922 90.597 12.0851 90.134 12.9361C89.669 13.7731 89.044 14.4255 88.257 14.8936C87.47 15.3476 86.571 15.5745 85.559 15.5745ZM85.58 14.0426C86.184 14.0426 86.747 13.8936 87.266 13.5957C87.787 13.2837 88.208 12.8226 88.531 12.2128C88.855 11.6029 89.017 10.8511 89.017 9.9574C89.017 9.0496 88.855 8.2979 88.531 7.7021C88.222 7.0922 87.808 6.6383 87.287 6.3404C86.782 6.0284 86.219 5.8724 85.601 5.8724C85.011 5.8724 84.448 6.0284 83.914 6.3404C83.395 6.6383 82.973 7.0922 82.649 7.7021C82.34 8.2979 82.186 9.0496 82.186 9.9574C82.186 10.8511 82.34 11.6029 82.649 12.2128C82.973 12.8226 83.387 13.2837 83.893 13.5957C84.413 13.8936 84.975 14.0426 85.58 14.0426ZM100.796 15.5745C99.812 15.5745 98.927 15.3476 98.14 14.8936C97.353 14.4255 96.734 13.7731 96.285 12.9361C95.835 12.0851 95.61 11.0993 95.61 9.9787C95.61 8.8298 95.835 7.8369 96.285 7C96.749 6.1489 97.374 5.4964 98.161 5.0426C98.962 4.5745 99.854 4.3404 100.838 4.3404C101.85 4.3404 102.743 4.5745 103.516 5.0426C104.303 5.4964 104.921 6.1489 105.371 7C105.835 7.8369 106.066 8.8227 106.066 9.9574C106.066 11.0922 105.835 12.0851 105.371 12.9361C104.907 13.7731 104.282 14.4255 103.495 14.8936C102.708 15.3476 101.808 15.5745 100.796 15.5745ZM100.817 14.0426C101.422 14.0426 101.984 13.8936 102.504 13.5957C103.023 13.2837 103.445 12.8226 103.769 12.2128C104.092 11.6029 104.253 10.8511 104.253 9.9574C104.253 9.0496 104.092 8.2979 103.769 7.7021C103.46 7.0922 103.045 6.6383 102.525 6.3404C102.019 6.0284 101.457 5.8724 100.838 5.8724C100.248 5.8724 99.686 6.0284 99.152 6.3404C98.632 6.6383 98.21 7.0922 97.887 7.7021C97.578 8.2979 97.423 9.0496 97.423 9.9574C97.423 10.8511 97.578 11.6029 97.887 12.2128C98.21 12.8226 98.625 13.2837 99.131 13.5957C99.65 13.8936 100.213 14.0426 100.817 14.0426ZM112.176 20C111.687 20 111.29 19.6114 111.29 19.1321V5.4135C111.29 4.9619 111.664 4.5957 112.125 4.5957H112.466C112.707 4.5957 112.907 4.777 112.928 5.0126L112.932 5.062C112.967 5.4779 113.582 5.656 113.904 5.383C114.255 5.0709 114.677 4.8227 115.169 4.6383C115.661 4.4397 116.224 4.3404 116.855 4.3404C117.896 4.3404 118.795 4.5886 119.555 5.0851C120.327 5.5816 120.924 6.2553 121.346 7.1064C121.782 7.9433 122 8.9007 122 9.9787C122 11.0567 121.782 12.0213 121.346 12.8724C120.924 13.7093 120.327 14.3689 119.555 14.8511C118.781 15.3333 117.875 15.5745 116.835 15.5745C115.977 15.5745 115.219 15.3971 114.558 15.0426C114.063 14.7711 113.061 15.117 113.061 15.6729V19.1321C113.061 19.6114 112.665 20 112.176 20ZM116.645 14.0213C117.333 14.0213 117.945 13.8511 118.479 13.5106C119.013 13.1702 119.428 12.7021 119.723 12.1064C120.032 11.4965 120.187 10.7801 120.187 9.9574C120.187 9.1489 120.032 8.4397 119.723 7.8298C119.428 7.2199 119.013 6.7447 118.479 6.4043C117.945 6.0639 117.333 5.8936 116.645 5.8936C115.942 5.8936 115.324 6.0639 114.79 6.4043C114.255 6.7447 113.841 7.2199 113.546 7.8298C113.251 8.4397 113.103 9.1489 113.103 9.9574C113.103 10.7801 113.251 11.4965 113.546 12.1064C113.841 12.7021 114.255 13.1702 114.79 13.5106C115.324 13.8511 115.942 14.0213 116.645 14.0213Z" fill="#FEFEFE"/>
<mask id="mask0_411_10" style="mask-type:luminance" maskUnits="userSpaceOnUse" x="0" y="3" width="14" height="14">
<path d="M14 3H0V17H14V3Z" fill="white"/>
<path d="M10.4735 15.3592C10.0175 15.3592 9.6335 15.2272 9.3215 14.9632C9.0335 14.6992 8.8895 14.3632 8.8895 13.9552V9.56322C8.8895 8.67522 8.6855 8.03922 8.2775 7.65522C7.8935 7.27122 7.4135 7.07922 6.8375 7.07922C6.2375 7.07922 5.7335 7.27122 5.3255 7.65522C4.9415 8.03922 4.7015 8.48322 4.6055 8.98722V13.8112C4.6055 14.2192 4.4495 14.5672 4.1375 14.8552C3.8495 15.1192 3.4895 15.2512 3.0575 15.2512C2.6015 15.2512 2.2175 15.1192 1.9055 14.8552C1.5935 14.5912 1.4375 14.2552 1.4375 13.8472V5.78322C1.4375 5.39922 1.5815 5.07522 1.8695 4.81122C2.1815 4.52322 2.5775 4.37922 3.0575 4.37922C3.4415 4.37922 3.7655 4.48722 4.0295 4.70322C4.2935 4.89522 4.4735 5.14722 4.5695 5.45922C5.2175 4.61922 6.2015 4.19922 7.5215 4.19922C8.8655 4.19922 9.9575 4.59522 10.7975 5.38722C11.6375 6.17922 12.0575 7.43922 12.0575 9.16722V14.0272C12.0575 14.4112 11.9015 14.7352 11.5895 14.9992C11.3015 15.2392 10.9295 15.3592 10.4735 15.3592Z" fill="black"/>
</mask>
<g mask="url(#mask0_411_10)">
<path d="M9.3215 14.9632L8.6458 15.7004L8.6604 15.7138L8.6756 15.7266L9.3215 14.9632ZM8.2775 7.65522L7.5704 8.36232L7.5811 8.37302L7.5921 8.38342L8.2775 7.65522ZM5.3255 7.65522L4.6401 6.92702L4.6291 6.93742L4.6184 6.94812L5.3255 7.65522ZM4.6055 8.98722L3.6232 8.80012L3.6055 8.89282V8.98722H4.6055ZM4.1375 14.8552L4.8132 15.5924L4.8158 15.59L4.1375 14.8552ZM1.8695 4.81122L2.5452 5.54842L2.5478 5.54602L1.8695 4.81122ZM4.0295 4.70322L3.3963 5.47722L3.4183 5.49522L3.4413 5.51192L4.0295 4.70322ZM4.5695 5.45922L3.6137 5.75332L4.1817 7.59912L5.3613 6.07002L4.5695 5.45922ZM11.5895 14.9992L12.2297 15.7674L12.2354 15.7626L11.5895 14.9992ZM10.4735 14.3592C10.2248 14.3592 10.0778 14.2932 9.9674 14.1998L8.6756 15.7266C9.1892 16.1612 9.8102 16.3592 10.4735 16.3592V14.3592ZM9.9972 14.226C9.926 14.1607 9.8895 14.0969 9.8895 13.9552H7.8895C7.8895 14.6295 8.141 15.2377 8.6458 15.7004L9.9972 14.226ZM9.8895 13.9552V9.56322H7.8895V13.9552H9.8895ZM9.8895 9.56322C9.8895 8.55682 9.663 7.58592 8.9629 6.92702L7.5921 8.38342C7.708 8.49252 7.8895 8.79362 7.8895 9.56322H9.8895ZM8.9846 6.94812C8.4008 6.36432 7.6609 6.07922 6.8375 6.07922V8.07922C7.1661 8.07922 7.3862 8.17812 7.5704 8.36232L8.9846 6.94812ZM6.8375 6.07922C6.0026 6.07922 5.2476 6.35532 4.6401 6.92702L6.0109 8.38342C6.2194 8.18712 6.4724 8.07922 6.8375 8.07922V6.07922ZM4.6184 6.94812C4.1013 7.46522 3.7589 8.08732 3.6232 8.80012L5.5878 9.17432C5.6441 8.87912 5.7817 8.61322 6.0326 8.36232L4.6184 6.94812ZM3.6055 8.98722V13.8112H5.6055V8.98722H3.6055ZM3.6055 13.8112C3.6055 13.9275 3.5756 14.013 3.4592 14.1204L4.8158 15.59C5.3234 15.1214 5.6055 14.5109 5.6055 13.8112H3.6055ZM3.4618 14.118C3.3783 14.1946 3.2679 14.2512 3.0575 14.2512V16.2512C3.7111 16.2512 4.3207 16.0438 4.8132 15.5924L3.4618 14.118ZM3.0575 14.2512C2.8088 14.2512 2.6618 14.1852 2.5514 14.0918L1.2596 15.6186C1.7732 16.0532 2.3942 16.2512 3.0575 16.2512V14.2512ZM2.5514 14.0918C2.4635 14.0174 2.4375 13.9605 2.4375 13.8472H0.4375C0.4375 14.5499 0.7235 15.165 1.2596 15.6186L2.5514 14.0918ZM2.4375 13.8472V5.78322H0.4375V13.8472H2.4375ZM2.4375 5.78322C2.4375 5.68502 2.4598 5.62672 2.5452 5.54842L1.1938 4.07402C0.7032 4.52372 0.4375 5.11342 0.4375 5.78322H2.4375ZM2.5478 5.54602C2.6506 5.45102 2.7936 5.37922 3.0575 5.37922V3.37922C2.3614 3.37922 1.7124 3.59542 1.1912 4.07642L2.5478 5.54602ZM3.0575 5.37922C3.2414 5.37922 3.3334 5.42572 3.3963 5.47722L4.6627 3.92922C4.1976 3.54872 3.6416 3.37922 3.0575 3.37922V5.37922ZM3.4413 5.51192C3.5303 5.57672 3.5814 5.64812 3.6137 5.75332L5.5253 5.16512C5.3656 4.64632 5.0567 4.21372 4.6177 3.89452L3.4413 5.51192ZM5.3613 6.07002C5.7741 5.53492 6.4278 5.19922 7.5215 5.19922V3.19922C5.9752 3.19922 4.6609 3.70352 3.7777 4.84842L5.3613 6.07002ZM7.5215 5.19922C8.6553 5.19922 9.4873 5.52632 10.1115 6.11482L11.4835 4.65962C10.4277 3.66412 9.0757 3.19922 7.5215 3.19922V5.19922ZM10.1115 6.11482C10.6697 6.64112 11.0575 7.57812 11.0575 9.16722H13.0575C13.0575 7.30032 12.6053 5.71732 11.4835 4.65962L10.1115 6.11482ZM11.0575 9.16722V14.0272H13.0575V9.16722H11.0575ZM11.0575 14.0272C11.0575 14.0961 11.0475 14.1479 10.9436 14.2358L12.2354 15.7626C12.7555 15.3225 13.0575 14.7263 13.0575 14.0272H11.0575ZM10.9493 14.231C10.8776 14.2907 10.7481 14.3592 10.4735 14.3592V16.3592C11.1109 16.3592 11.7254 16.1877 12.2297 15.7674L10.9493 14.231Z" fill="#33BC77"/>
</g>
</svg>
