<svg width="60" height="60" viewBox="0 0 60 60" fill="none" xmlns="http://www.w3.org/2000/svg">
<path d="M29.9969 36.1109C34.7241 36.1109 38.5562 32.2788 38.5562 27.5516C38.5562 22.8244 34.7241 18.9922 29.9969 18.9922C25.2697 18.9922 21.4375 22.8244 21.4375 27.5516C21.4375 32.2788 25.2697 36.1109 29.9969 36.1109Z" fill="#4CA1AF" stroke="#4CA1AF" stroke-width="2" stroke-miterlimit="10"/>
<path d="M29.9993 58.1219C36.4147 58.1263 42.637 55.9267 47.6243 51.8913C46.5382 48.0517 44.2283 44.6715 41.0458 42.2643C37.8633 39.8572 33.9821 38.5547 29.9917 38.5547C26.0014 38.5547 22.1202 39.8572 18.9377 42.2643C15.7552 44.6715 13.4455 48.0517 12.3594 51.8913C17.3507 55.9299 23.5787 58.1297 29.9993 58.1219Z" fill="#4CA1AF" stroke="#4CA1AF" stroke-width="2" stroke-miterlimit="10"/>
<path d="M30 58.125C45.533 58.125 58.125 45.533 58.125 30C58.125 14.467 45.533 1.875 30 1.875C14.467 1.875 1.875 14.467 1.875 30C1.875 45.533 14.467 58.125 30 58.125Z" stroke="white" stroke-width="2" stroke-linecap="round" stroke-linejoin="round"/>
</svg>
