<svg width="34" height="34" viewBox="0 0 34 34" fill="none" xmlns="http://www.w3.org/2000/svg">
<path fill-rule="evenodd" clip-rule="evenodd" d="M4.49566 4.49243C2.83594 6.15216 2.83594 8.82345 2.83594 14.166V19.8327C2.83594 25.1752 2.83594 27.8465 4.49566 29.5063C6.1554 31.166 8.82668 31.166 14.1693 31.166H19.8359C25.1785 31.166 27.8499 31.166 29.5095 29.5063C31.1693 27.8466 31.1693 25.1752 31.1693 19.8327V14.166C31.1693 10.1436 31.1693 7.63545 30.4609 5.93315V24.0827C29.1004 24.0827 27.7955 23.5422 26.8333 22.58L25.7685 21.5153C24.7467 20.4934 24.2357 19.9824 23.6564 19.7671C23.0196 19.5305 22.3189 19.5305 21.6821 19.7671C21.1029 19.9824 20.5919 20.4934 19.57 21.5153L19.4098 21.6755C18.5805 22.5048 18.166 22.9193 17.7254 22.9967C17.383 23.0568 17.0305 22.9889 16.7349 22.806C16.3545 22.5706 16.1236 22.0317 15.6616 20.9537L15.5859 20.7772C14.524 18.2992 13.993 17.0601 13.0666 16.5958C12.6003 16.362 12.0785 16.2616 11.5586 16.3053C10.5261 16.3925 9.57295 17.3457 7.66662 19.252L4.96094 21.9577V4.08984C4.79717 4.21182 4.64246 4.34564 4.49566 4.49243Z" fill="#4CA1AF"/>
<path d="M4.25 14.1667C4.25 11.4553 4.253 9.56433 4.44483 8.13756C4.63118 6.75154 4.97202 6.01757 5.4948 5.4948C6.01757 4.97202 6.75154 4.63118 8.13756 4.44483C9.56433 4.253 11.4553 4.25 14.1667 4.25H19.8333C22.5447 4.25 24.4357 4.253 25.8624 4.44483C27.2484 4.63118 27.9824 4.97202 28.5052 5.4948C29.0279 6.01757 29.3688 6.75154 29.5552 8.13756C29.747 9.56433 29.75 11.4553 29.75 14.1667V19.8333C29.75 22.5447 29.747 24.4357 29.5552 25.8624C29.3688 27.2484 29.0279 27.9824 28.5052 28.5052C27.9824 29.0279 27.2484 29.3688 25.8624 29.5552C24.4357 29.747 22.5447 29.75 19.8333 29.75H14.1667C11.4553 29.75 9.56433 29.747 8.13756 29.5552C6.75154 29.3688 6.01757 29.0279 5.4948 28.5052C4.97202 27.9824 4.63118 27.2484 4.44483 25.8624C4.253 24.4357 4.25 22.5447 4.25 19.8333V14.1667Z" stroke="#4CA1AF" stroke-width="5"/>
<path d="M21.2474 15.5846C22.8122 15.5846 24.0807 14.3161 24.0807 12.7513C24.0807 11.1865 22.8122 9.91797 21.2474 9.91797C19.6826 9.91797 18.4141 11.1865 18.4141 12.7513C18.4141 14.3161 19.6826 15.5846 21.2474 15.5846Z" fill="#4CA1AF"/>
</svg>
